<svg width="30" height="30" viewBox="0 0 30 30" fill="none" xmlns="http://www.w3.org/2000/svg">
<circle cx="15" cy="15" r="15" fill="white"/>
<path d="M8.22126 22.0591H11.3054V12.0747H8.22126V22.0591Z" fill="black"/>
<path d="M7.94089 8.88721C7.94089 9.87158 8.73528 10.6685 9.76332 10.6685C10.7446 10.6685 11.539 9.87158 11.539 8.88721C11.539 7.90283 10.7446 7.05908 9.76332 7.05908C8.73528 7.05908 7.94089 7.90283 7.94089 8.88721Z" fill="black"/>
<path d="M19.81 22.0591H22.9409V16.5747C22.9409 13.9028 22.3334 11.7935 19.2026 11.7935C17.7072 11.7935 16.6792 12.6372 16.2586 13.4341H16.2119V12.0747H13.268V22.0591H16.3521V17.1372C16.3521 15.8247 16.5857 14.5591 18.2213 14.5591C19.81 14.5591 19.81 16.0591 19.81 17.1841V22.0591Z" fill="black"/>
</svg>
